<svg xmlns="http://www.w3.org/2000/svg" viewBox="0 0 100 100"><defs><linearGradient id="s" x1="0" x2="1"><stop stop-color="#8f9499"/><stop offset=".5" stop-color="#f0f1f2"/><stop offset="1" stop-color="#7f858b"/></linearGradient><linearGradient id="r" x1="0" x2="1"><stop stop-color="#d89f99"/><stop offset="1" stop-color="#e0bf86"/></linearGradient></defs><rect x="2" y="2" width="96" height="96" rx="25" fill="#0b0b0d" stroke="#c9a15b" stroke-width="2"/><g fill="url(#s)"><rect x="13" y="16" width="3" height="68"/><rect x="19" y="16" width="2" height="68"/><rect x="24" y="16" width="5" height="68"/><rect x="32" y="16" width="2" height="68"/><rect x="37" y="16" width="4" height="68"/><rect x="44" y="16" width="2" height="68"/><rect x="50" y="16" width="5" height="68"/><rect x="58" y="16" width="2" height="68"/><rect x="63" y="16" width="4" height="68"/><rect x="70" y="16" width="2" height="68"/><rect x="75" y="16" width="5" height="68"/><rect x="83" y="16" width="3" height="68"/></g><rect x="20" y="36" width="60" height="28" rx="9" fill="#0b0b0d" stroke="#e1c58e" stroke-width="1.5"/><text x="50" y="54" text-anchor="middle" font-family="Georgia,serif" font-size="12" font-weight="700" fill="url(#r)">DESINZI</text></svg>